<?xml version="1.0" encoding="UTF-8"?>
<svg version="1.1" xmlns="http://www.w3.org/2000/svg" width="391" height="179">
<path d="M0 0 C129.03 0 258.06 0 391 0 C391 59.07 391 118.14 391 179 C261.97 179 132.94 179 0 179 C0 119.93 0 60.86 0 0 Z " fill="#FCFCFD" transform="translate(0,0)"/>
<path d="M0 0 C3.51013212 1.76431948 7.19868213 2.99042217 10.90234375 4.28515625 C13.22265625 5.1171875 13.22265625 5.1171875 15.22265625 6.1171875 C15.22265625 6.7771875 15.22265625 7.4371875 15.22265625 8.1171875 C16.39828125 8.2203125 17.57390625 8.3234375 18.78515625 8.4296875 C23.04751528 8.94633708 26.36353159 10.2680236 30.22265625 12.1171875 C30.22265625 12.7771875 30.22265625 13.4371875 30.22265625 14.1171875 C30.84140625 14.2615625 31.46015625 14.4059375 32.09765625 14.5546875 C34.22265625 15.1171875 34.22265625 15.1171875 36.22265625 16.1171875 C37.09228516 17.92724609 37.09228516 17.92724609 37.94921875 20.265625 C38.25859375 21.10609375 38.56796875 21.9465625 38.88671875 22.8125 C39.20382813 23.69679688 39.5209375 24.58109375 39.84765625 25.4921875 C40.1725 26.36875 40.49734375 27.2453125 40.83203125 28.1484375 C43.22265625 34.71763393 43.22265625 34.71763393 43.22265625 38.1171875 C43.88265625 38.1171875 44.54265625 38.1171875 45.22265625 38.1171875 C45.71765625 41.5821875 45.71765625 41.5821875 46.22265625 45.1171875 C46.88265625 45.1171875 47.54265625 45.1171875 48.22265625 45.1171875 C51.22265625 51.7421875 51.22265625 51.7421875 51.22265625 55.1171875 C51.88265625 55.1171875 52.54265625 55.1171875 53.22265625 55.1171875 C54.4765846 62.58992268 54.01385462 68.34719042 50.22265625 75.1171875 C49.56265625 75.1171875 48.90265625 75.1171875 48.22265625 75.1171875 C48.08472656 75.84292969 47.94679688 76.56867188 47.8046875 77.31640625 C46.17463452 85.16035246 44.04615665 94.2936871 38.22265625 100.1171875 C37.72030739 101.39238076 37.26626722 102.68710625 36.84765625 103.9921875 C35.53043853 107.5739815 34.43132159 109.86244969 31.22265625 112.1171875 C27.14193387 113.58119924 23.56746084 114.1171875 19.22265625 114.1171875 C19.22265625 114.7771875 19.22265625 115.4371875 19.22265625 116.1171875 C17.45406934 116.78979101 15.68269609 117.45507145 13.91015625 118.1171875 C12.92402344 118.4884375 11.93789062 118.8596875 10.921875 119.2421875 C8.22265625 120.1171875 8.22265625 120.1171875 5.22265625 120.1171875 C4.72765625 121.6021875 4.72765625 121.6021875 4.22265625 123.1171875 C-1.30122164 126.2956093 -8.353458 128.76595742 -14.77734375 128.1171875 C-18.63952147 126.79563227 -22.18293738 125.04095429 -25.77734375 123.1171875 C-30.67307677 120.57140633 -35.53076039 118.77610719 -40.77734375 117.1171875 C-42.26234375 116.6221875 -42.26234375 116.6221875 -43.77734375 116.1171875 C-43.77734375 115.4571875 -43.77734375 114.7971875 -43.77734375 114.1171875 C-44.70546875 114.0140625 -45.63359375 113.9109375 -46.58984375 113.8046875 C-49.96138477 113.07749238 -50.60334825 112.58763693 -52.77734375 110.1171875 C-54.09655553 109.42299553 -55.42895653 108.75285576 -56.77734375 108.1171875 C-54.53002273 107.27594434 -52.2799559 106.44403918 -50.02734375 105.6171875 C-49.07601562 105.25947266 -49.07601562 105.25947266 -48.10546875 104.89453125 C-44.74447768 103.66916992 -42.40862788 103.1171875 -38.77734375 103.1171875 C-38.77734375 102.4571875 -38.77734375 101.7971875 -38.77734375 101.1171875 C-37.33101562 100.61058594 -37.33101562 100.61058594 -35.85546875 100.09375 C-34.579379 99.64336538 -33.30333999 99.19283697 -32.02734375 98.7421875 C-31.393125 98.52046875 -30.75890625 98.29875 -30.10546875 98.0703125 C-27.49844291 97.14699085 -24.97414354 96.21830188 -22.51171875 94.953125 C-20.77734375 94.1171875 -20.77734375 94.1171875 -17.77734375 94.1171875 C-17.77734375 93.4571875 -17.77734375 92.7971875 -17.77734375 92.1171875 C-12.35998578 91.18316026 -8.972828 90.90910669 -3.77734375 93.1171875 C-3.77734375 93.7771875 -3.77734375 94.4371875 -3.77734375 95.1171875 C-2.99359375 95.0140625 -2.20984375 94.9109375 -1.40234375 94.8046875 C3.0538295 95.18884037 5.90970815 96.85259743 9.80859375 98.9375 C12.59118264 100.29727645 15.13967254 100.87379405 18.22265625 101.1171875 C18.22265625 101.7771875 18.22265625 102.4371875 18.22265625 103.1171875 C21.52265625 103.7771875 24.82265625 104.4371875 28.22265625 105.1171875 C28.22265625 105.7771875 28.22265625 106.4371875 28.22265625 107.1171875 C29.87265625 107.1171875 31.52265625 107.1171875 33.22265625 107.1171875 C32.72765625 102.6621875 32.72765625 102.6621875 32.22265625 98.1171875 C31.56265625 98.1171875 30.90265625 98.1171875 30.22265625 98.1171875 C30.22265625 97.1271875 30.22265625 96.1371875 30.22265625 95.1171875 C29.56265625 95.1171875 28.90265625 95.1171875 28.22265625 95.1171875 C28.0525 94.4159375 27.88234375 93.7146875 27.70703125 92.9921875 C26.54544441 88.4446986 25.42486065 84.18544046 23.16015625 80.0546875 C21.12557552 76.28838348 20.33292389 72.61483309 19.6171875 68.4140625 C19.48699219 67.65609375 19.35679688 66.898125 19.22265625 66.1171875 C19.10277344 65.37984375 18.98289062 64.6425 18.859375 63.8828125 C18.64925781 63.30015625 18.43914062 62.7175 18.22265625 62.1171875 C16.73765625 61.6221875 16.73765625 61.6221875 15.22265625 61.1171875 C11.86922976 58.02171689 9.06661499 54.67213592 6.22265625 51.1171875 C4.57721845 49.42955899 2.90977048 47.7631526 1.22265625 46.1171875 C0.39765625 45.2715625 -0.42734375 44.4259375 -1.27734375 43.5546875 C-3.71813198 41.08830422 -3.71813198 41.08830422 -6.40234375 39.0546875 C-8.77734375 37.1171875 -8.77734375 37.1171875 -10.02734375 35.0546875 C-13.73244497 30.95261115 -20.48165498 29.97133085 -25.77734375 29.1171875 C-25.77734375 28.4571875 -25.77734375 27.7971875 -25.77734375 27.1171875 C-26.44378906 26.94703125 -27.11023437 26.776875 -27.796875 26.6015625 C-34.61396368 24.80909722 -41.19185481 22.62655176 -47.77734375 20.1171875 C-47.77734375 19.4571875 -47.77734375 18.7971875 -47.77734375 18.1171875 C-50.74734375 17.7871875 -53.71734375 17.4571875 -56.77734375 17.1171875 C-51.47813276 33.63375988 -51.47813276 33.63375988 -44.578125 49.53125 C-40.35620457 58.15285593 -41.28730158 64.31237939 -44.27734375 73.1796875 C-45.0888555 75.50119959 -45.92611773 77.80975697 -46.77734375 80.1171875 C-47.43734375 80.1171875 -48.09734375 80.1171875 -48.77734375 80.1171875 C-49.11765625 81.880625 -49.11765625 81.880625 -49.46484375 83.6796875 C-50.99745211 90.66032706 -53.44860275 97.37094925 -55.77734375 104.1171875 C-56.43734375 104.1171875 -57.09734375 104.1171875 -57.77734375 104.1171875 C-57.77734375 105.1071875 -57.77734375 106.0971875 -57.77734375 107.1171875 C-58.43734375 107.1171875 -59.09734375 107.1171875 -59.77734375 107.1171875 C-60.04289062 106.44171875 -60.3084375 105.76625 -60.58203125 105.0703125 C-60.93523438 104.17828125 -61.2884375 103.28625 -61.65234375 102.3671875 C-62.00039063 101.48546875 -62.3484375 100.60375 -62.70703125 99.6953125 C-63.71449818 97.1556034 -63.71449818 97.1556034 -64.91015625 94.9765625 C-65.77734375 93.1171875 -65.77734375 93.1171875 -65.77734375 90.1171875 C-66.43734375 90.1171875 -67.09734375 90.1171875 -67.77734375 90.1171875 C-68.77734375 87.1171875 -69.77734375 84.1171875 -70.77734375 81.1171875 C-71.11942871 80.20332275 -71.46151367 79.28945801 -71.81396484 78.34790039 C-72.80800641 75.01435958 -73.03555403 72.33932846 -73.04296875 68.87109375 C-73.04554687 67.70384766 -73.048125 66.53660156 -73.05078125 65.33398438 C-73.04304688 64.12806641 -73.0353125 62.92214844 -73.02734375 61.6796875 C-73.03507812 60.47763672 -73.0428125 59.27558594 -73.05078125 58.03710938 C-73.03751927 52.02611781 -72.87751867 46.77599215 -70.77734375 41.1171875 C-70.11734375 41.1171875 -69.45734375 41.1171875 -68.77734375 41.1171875 C-68.69484375 40.1271875 -68.61234375 39.1371875 -68.52734375 38.1171875 C-67.99704803 34.28034201 -66.55319295 31.29338089 -64.71484375 27.9140625 C-63.64036852 25.97037164 -63.64036852 25.97037164 -62.77734375 23.1171875 C-62.11734375 23.1171875 -61.45734375 23.1171875 -60.77734375 23.1171875 C-60.65359375 22.0034375 -60.52984375 20.8896875 -60.40234375 19.7421875 C-59.77734375 16.1171875 -59.77734375 16.1171875 -57.77734375 14.1171875 C-56.11048804 13.43904791 -54.41839266 12.82201709 -52.71484375 12.2421875 C-49.02352151 10.95046661 -45.45223017 9.57039131 -41.90234375 7.9296875 C-38.87484278 6.5436682 -36.10902999 5.5470825 -32.77734375 5.1171875 C-32.77734375 4.4571875 -32.77734375 3.7971875 -32.77734375 3.1171875 C-31.94589844 2.93542969 -31.11445312 2.75367188 -30.2578125 2.56640625 C-29.17113281 2.31503906 -28.08445313 2.06367187 -26.96484375 1.8046875 C-25.88589844 1.56105469 -24.80695312 1.31742188 -23.6953125 1.06640625 C-20.78501767 0.11968384 -19.70403683 -0.60412742 -17.77734375 -2.8828125 C-11.75822018 -5.55797853 -5.34755741 -2.91298356 0 0 Z " fill="#E65D1D" transform="translate(72.77734375,34.8828125)"/>
<path d="M0 0 C2.97 0.33 5.94 0.66 9 1 C9 1.66 9 2.32 9 3 C10.010625 3.103125 11.02125 3.20625 12.0625 3.3125 C16.13997278 4.02443969 19.24428149 5.28686524 23 7 C25.65525134 8.03311716 28.32634546 9.01496938 31 10 C31 10.66 31 11.32 31 12 C31.87011719 12.05607422 31.87011719 12.05607422 32.7578125 12.11328125 C40.7344282 12.78458059 45.54028725 14.96558064 51 21 C51.66 21.845625 52.32 22.69125 53 23.5625 C55.11878607 26.14477053 57.37202922 27.94890086 60 30 C61.68762851 31.6454378 63.3540349 33.31288577 65 35 C66.2375 36.2375 66.2375 36.2375 67.5 37.5 C68.7375 38.7375 68.7375 38.7375 70 40 C70.86625 40.763125 71.7325 41.52625 72.625 42.3125 C76.87044614 47.11655747 77.97182832 52.7095179 79.3984375 58.86328125 C80.10089 61.35835603 81.05781096 63.67365303 82.0625 66.0625 C83.74547426 70.1103972 84.62106695 73.64226991 85 78 C85.66 78 86.32 78 87 78 C87 78.99 87 79.98 87 81 C87.66 81 88.32 81 89 81 C89.495 85.455 89.495 85.455 90 90 C88.35 90 86.7 90 85 90 C85 89.34 85 88.68 85 88 C83.72125 87.855625 82.4425 87.71125 81.125 87.5625 C78.74307106 87.29357254 77.15547309 87.07773654 75 86 C75 85.34 75 84.68 75 84 C74.21625 84.103125 73.4325 84.20625 72.625 84.3125 C68.16882675 83.92834713 65.3129481 82.26459007 61.4140625 80.1796875 C58.63147361 78.81991105 56.08298371 78.24339345 53 78 C53 77.34 53 76.68 53 76 C51.41693353 75.83081732 49.83353281 75.66476064 48.25 75.5 C47.36828125 75.4071875 46.4865625 75.314375 45.578125 75.21875 C42.76695165 74.94363687 42.76695165 74.94363687 39 75 C39 75.66 39 76.32 39 77 C32.05604954 80.07836721 25.48252838 82.62820313 18 84 C18 84.66 18 85.32 18 86 C13 87.66666667 8 89.33333333 3 91 C4.32 92.65 5.64 94.3 7 96 C5.02 95.67 3.04 95.34 1 95 C1 94.34 1 93.68 1 93 C-0.32 92.34 -1.64 91.68 -3 91 C-2.01 90.505 -2.01 90.505 -1 90 C-1 89.01 -1 88.02 -1 87 C-0.34 87 0.32 87 1 87 C1.17015625 86.27296875 1.3403125 85.5459375 1.515625 84.796875 C3.30209735 77.38491526 5.48631722 70.19653344 8 63 C8.66 63 9.32 63 10 63 C10.12117188 62.41992188 10.24234375 61.83984375 10.3671875 61.2421875 C11.12163337 57.72530906 11.85962627 54.37432995 13.125 51 C15.4754378 42.94135611 13.61082763 37.28027258 10 30 C-0 7.5 -0 7.5 0 0 Z " fill="#ECAC11" transform="translate(16,52)"/>
<path d="M0 0 C3.28288823 0.13187077 5.50918201 0.40130038 8.02026367 2.62036133 C11.02200909 6.45413417 13.16306402 10.71900866 15.27368164 15.08862305 C16.40532969 17.23303793 17.69530719 19.11241636 19.13549805 21.06079102 C21.3659668 24.15844727 21.3659668 24.15844727 21.3659668 26.15844727 C22.0259668 26.15844727 22.6859668 26.15844727 23.3659668 26.15844727 C23.89383789 27.28379883 23.89383789 27.28379883 24.43237305 28.43188477 C27.4988276 34.78897331 30.81778307 40.54204566 35.0456543 46.19750977 C36.3659668 48.15844727 36.3659668 48.15844727 36.3659668 50.15844727 C37.0259668 50.15844727 37.6859668 50.15844727 38.3659668 50.15844727 C38.6959668 51.14844727 39.0259668 52.13844727 39.3659668 53.15844727 C39.3659668 35.99844727 39.3659668 18.83844727 39.3659668 1.15844727 C45.6359668 1.15844727 51.9059668 1.15844727 58.3659668 1.15844727 C58.3659668 30.19844727 58.3659668 59.23844727 58.3659668 89.15844727 C41.3659668 89.15844727 41.3659668 89.15844727 37.5534668 85.79907227 C36.3659668 83.66625977 36.3659668 83.66625977 35.3659668 81.40844727 C34.9740918 80.67883789 34.5822168 79.94922852 34.1784668 79.19750977 C32.45227564 75.90096416 31.18261606 72.79496218 30.3659668 69.15844727 C29.7059668 69.15844727 29.0459668 69.15844727 28.3659668 69.15844727 C27.96249023 68.31282227 27.55901367 67.46719727 27.14331055 66.59594727 C25.26364687 62.96055379 23.16551513 59.57937594 20.9284668 56.15844727 C20.54625977 55.56805664 20.16405273 54.97766602 19.77026367 54.36938477 C17.91687485 51.51220811 16.04050522 48.69556857 14.08081055 45.90844727 C12.3659668 43.15844727 12.3659668 43.15844727 12.3659668 40.15844727 C10.8809668 39.66344727 10.8809668 39.66344727 9.3659668 39.15844727 C8.99386259 37.8354101 8.65966506 36.50106792 8.3659668 35.15844727 C7.7059668 34.82844727 7.0459668 34.49844727 6.3659668 34.15844727 C6.39625977 34.75866699 6.42655273 35.35888672 6.45776367 35.97729492 C7.32570141 53.71994521 7.47580756 71.40085689 7.3659668 89.15844727 C1.4259668 89.15844727 -4.5140332 89.15844727 -10.6340332 89.15844727 C-10.65658345 77.83232741 -10.67494784 66.50622236 -10.68584538 55.18008518 C-10.6910744 49.92148063 -10.69817239 44.66289217 -10.70947266 39.40429688 C-10.72030086 34.333916 -10.72630989 29.26355065 -10.72891045 24.1931591 C-10.73076482 22.25417778 -10.73438566 20.31519736 -10.73976326 18.37622261 C-10.74697281 15.67022967 -10.74802418 12.96430171 -10.74755859 10.25830078 C-10.75115387 9.44838181 -10.75474915 8.63846283 -10.75845337 7.80400085 C-10.74329473 -0.28338501 -7.23111751 0.31586409 0 0 Z " fill="#393080" transform="translate(165.634033203125,51.841552734375)"/>
<path d="M0 0 C9.36932842 -0.22419131 16.14733297 0.93840914 24.41796875 5.15625 C24.41796875 5.81625 24.41796875 6.47625 24.41796875 7.15625 C25.11921875 7.383125 25.82046875 7.61 26.54296875 7.84375 C30.14650792 9.48884397 32.61523707 11.35351832 35.41796875 14.15625 C36.29296875 17.46875 36.29296875 17.46875 36.41796875 20.15625 C35.13080228 21.16203589 33.83808217 22.16071798 32.54296875 23.15625 C31.82367188 23.713125 31.104375 24.27 30.36328125 24.84375 C28.41796875 26.15625 28.41796875 26.15625 26.41796875 26.15625 C26.41796875 26.81625 26.41796875 27.47625 26.41796875 28.15625 C24.76796875 28.48625 23.11796875 28.81625 21.41796875 29.15625 C20.77859375 28.269375 20.13921875 27.3825 19.48046875 26.46875 C15.05008209 21.30201098 10.49928668 18.52613681 3.67578125 17.70703125 C-3.71556892 17.33318191 -3.71556892 17.33318191 -10.515625 19.89453125 C-12.74941273 21.95271055 -12.74941273 21.95271055 -13.0703125 24.515625 C-13.01230469 25.30453125 -12.95429688 26.0934375 -12.89453125 26.90625 C-12.84941406 27.70546875 -12.80429687 28.5046875 -12.7578125 29.328125 C-12.69980469 29.93140625 -12.64179688 30.5346875 -12.58203125 31.15625 C-8.8091052 32.62349902 -5.19118692 33.39880948 -1.20703125 33.96875 C12.32829761 36.11212502 26.50904358 39.52222216 34.97265625 50.83984375 C37.76866734 55.32101828 38.69491947 58.87390969 38.66796875 64.15625 C38.67570312 65.6721875 38.67570312 65.6721875 38.68359375 67.21875 C38.00431514 74.73077232 33.38226423 79.88886697 27.98974609 84.87304688 C16.92835515 93.9035953 2.58336044 93.15591801 -10.82348633 91.95556641 C-14.22085411 91.58195386 -17.30746139 91.15847378 -20.39453125 89.65625 C-23.50190817 88.11750339 -23.50190817 88.11750339 -26.58203125 87.15625 C-26.58203125 86.49625 -26.58203125 85.83625 -26.58203125 85.15625 C-27.16339844 84.90488281 -27.74476563 84.65351563 -28.34375 84.39453125 C-30.86727902 82.99844277 -32.45853132 81.47538782 -34.39453125 79.34375 C-35.33232422 78.34408203 -35.33232422 78.34408203 -36.2890625 77.32421875 C-37.58203125 75.15625 -37.58203125 75.15625 -37.6484375 72.69921875 C-36.17322184 69.18139679 -33.72438978 67.42943968 -30.70703125 65.28125 C-30.16433594 64.86617188 -29.62164062 64.45109375 -29.0625 64.0234375 C-27.46484375 62.8515625 -27.46484375 62.8515625 -24.58203125 61.15625 C-21.58203125 62.15625 -21.58203125 62.15625 -20.33203125 64.40625 C-16.85216455 69.87461196 -11.73752508 72.47474925 -5.58203125 74.15625 C1.91422191 74.81894976 8.8049128 75.00104997 15.41796875 71.15625 C16.99683715 69.5773816 16.70116617 67.96332663 16.79296875 65.78125 C16.79157217 62.07051642 16.79157217 62.07051642 14.54296875 59.21875 C10.22966462 57.7522266 5.89429634 56.96735568 1.41796875 56.15625 C-21.73483589 51.60112427 -21.73483589 51.60112427 -28.58203125 43.15625 C-29.24203125 42.49625 -29.90203125 41.83625 -30.58203125 41.15625 C-31.26956426 39.49808216 -31.93764408 37.83165664 -32.58203125 36.15625 C-32.91203125 35.82625 -33.24203125 35.49625 -33.58203125 35.15625 C-34.43840262 25.84847592 -33.68668402 17.81784003 -28.109375 10.125 C-22.40322658 3.75785567 -14.61786705 0.8484053 -6.1953125 0.25 C-4.12985631 0.17590292 -2.06482138 0.09006854 0 0 Z " fill="#372E7F" transform="translate(271.58203125,50.84375)"/>
<path d="M0 0 C9.879375 -0.020625 19.75875 -0.04125 29.9375 -0.0625 C34.62247681 -0.07615601 34.62247681 -0.07615601 39.40209961 -0.09008789 C41.86051388 -0.09300678 44.31892864 -0.0955554 46.77734375 -0.09765625 C48.0677356 -0.10277222 49.35812744 -0.10788818 50.68762207 -0.11315918 C51.90566528 -0.11328003 53.1237085 -0.11340088 54.37866211 -0.11352539 C55.97417152 -0.11685631 55.97417152 -0.11685631 57.60191345 -0.12025452 C60 0 60 0 61 1 C61 6.28 61 11.56 61 17 C46.81 17 32.62 17 18 17 C18 22.61 18 28.22 18 34 C20.73152344 33.98839844 23.46304687 33.97679687 26.27734375 33.96484375 C28.91170129 33.95705358 31.54605757 33.95097659 34.18041992 33.94506836 C36.01668875 33.94002769 37.85295354 33.93319523 39.68920898 33.92456055 C42.32276401 33.91248328 44.95626616 33.90676919 47.58984375 33.90234375 C48.41588608 33.89718246 49.24192841 33.89202118 50.09300232 33.88670349 C52.06236368 33.88650795 54.03161614 33.93795848 56 34 C60.01386486 38.01386486 57 45.32353788 57 51 C44.13 51 31.26 51 18 51 C18 57.6 18 64.2 18 71 C33.18 71 48.36 71 64 71 C64 76.61 64 82.22 64 88 C42.88 88 21.76 88 0 88 C0 58.96 0 29.92 0 0 Z " fill="#38307F" transform="translate(321,53)"/>
<path d="M0 0 C0.66 0 1.32 0 2 0 C3.17461555 3.10121711 4.33830456 6.20642241 5.5 9.3125 C5.83386719 10.19357422 6.16773437 11.07464844 6.51171875 11.98242188 C6.82753906 12.82998047 7.14335938 13.67753906 7.46875 14.55078125 C7.76201172 15.33106689 8.05527344 16.11135254 8.35742188 16.9152832 C9 19 9 19 9 22 C9.66 22 10.32 22 11 22 C11.495 25.465 11.495 25.465 12 29 C12.66 29 13.32 29 14 29 C17 35.625 17 35.625 17 39 C17.66 39 18.32 39 19 39 C20.25392835 46.47273518 19.79119837 52.23000292 16 59 C15.34 59 14.68 59 14 59 C13.86207031 59.72574219 13.72414063 60.45148438 13.58203125 61.19921875 C11.95197827 69.04316496 9.8235004 78.1764996 4 84 C3.49765114 85.27519326 3.04361097 86.56991875 2.625 87.875 C1.30778228 91.456794 0.20866534 93.74526219 -3 96 C-7.08072238 97.46401174 -10.65519541 98 -15 98 C-15 98.66 -15 99.32 -15 100 C-16.76858691 100.67260351 -18.53996016 101.33788395 -20.3125 102 C-21.29863281 102.37125 -22.28476563 102.7425 -23.30078125 103.125 C-26 104 -26 104 -29 104 C-29.495 105.485 -29.495 105.485 -30 107 C-35.52387789 110.1784218 -42.57611425 112.64876992 -49 112 C-52.86217772 110.67844477 -56.40559363 108.92376679 -60 107 C-64.89573302 104.45421883 -69.75341664 102.65891969 -75 101 C-75.99 100.67 -76.98 100.34 -78 100 C-78 99.34 -78 98.68 -78 98 C-78.928125 97.896875 -79.85625 97.79375 -80.8125 97.6875 C-84.18404102 96.96030488 -84.8260045 96.47044943 -87 94 C-88.31921178 93.30580803 -89.65161278 92.63566826 -91 92 C-88.75267898 91.15875684 -86.50261215 90.32685168 -84.25 89.5 C-83.29867187 89.14228516 -83.29867187 89.14228516 -82.328125 88.77734375 C-78.96713393 87.55198242 -76.63128413 87 -73 87 C-73 86.34 -73 85.68 -73 85 C-71.55367187 84.49339844 -71.55367187 84.49339844 -70.078125 83.9765625 C-68.80203525 83.52617788 -67.52599624 83.07564947 -66.25 82.625 C-65.61578125 82.40328125 -64.9815625 82.1815625 -64.328125 81.953125 C-61.72109916 81.02980335 -59.19679979 80.10111438 -56.734375 78.8359375 C-55 78 -55 78 -52 78 C-52 77.34 -52 76.68 -52 76 C-46.58264203 75.06597276 -43.19548425 74.79191919 -38 77 C-38 77.66 -38 78.32 -38 79 C-37.21625 78.896875 -36.4325 78.79375 -35.625 78.6875 C-31.16882675 79.07165287 -28.3129481 80.73540993 -24.4140625 82.8203125 C-21.63147361 84.18008895 -19.08298371 84.75660655 -16 85 C-16 85.66 -16 86.32 -16 87 C-12.7 87.66 -9.4 88.32 -6 89 C-6 89.66 -6 90.32 -6 91 C-4.35 91 -2.7 91 -1 91 C-1.495 86.545 -1.495 86.545 -2 82 C-2.66 82 -3.32 82 -4 82 C-4 81.01 -4 80.02 -4 79 C-4.66 79 -5.32 79 -6 79 C-6.17015625 78.29875 -6.3403125 77.5975 -6.515625 76.875 C-7.67721184 72.3275111 -8.7977956 68.06825296 -11.0625 63.9375 C-13.11281929 60.14869705 -13.84704749 56.47263456 -14.5546875 52.24609375 C-14.93015934 49.86924428 -14.93015934 49.86924428 -16.25 47.375 C-17.44190838 43.60062346 -16.13988581 40.73629236 -15 37 C-14.34 37 -13.68 37 -13 37 C-12.896875 36.195625 -12.79375 35.39125 -12.6875 34.5625 C-11.84899627 30.21752614 -10.47178341 26.16542473 -9 22 C-8.34 22 -7.68 22 -7 22 C-6.87882812 21.43152344 -6.75765625 20.86304687 -6.6328125 20.27734375 C-5.58677946 15.45754536 -4.40795516 10.7267066 -3 6 C-2.34 6 -1.68 6 -1 6 C-0.67 4.02 -0.34 2.04 0 0 Z " fill="#E55D1E" transform="translate(107,51)"/>
<path d="M0 0 C0 0.66 0 1.32 0 2 C0.78375 1.896875 1.5675 1.79375 2.375 1.6875 C6.83117325 2.07165287 9.6870519 3.73540993 13.5859375 5.8203125 C16.36852639 7.18008895 18.91701629 7.75660655 22 8 C22 8.66 22 9.32 22 10 C26.95 10.99 26.95 10.99 32 12 C32 12.66 32 13.32 32 14 C32.66 14 33.32 14 34 14 C33.67 15.32 33.34 16.64 33 18 C32.34 18 31.68 18 31 18 C31 18.66 31 19.32 31 20 C27.04 20.495 27.04 20.495 23 21 C23 21.66 23 22.32 23 23 C21.23141309 23.67260351 19.46003984 24.33788395 17.6875 25 C16.20830078 25.556875 16.20830078 25.556875 14.69921875 26.125 C12 27 12 27 9 27 C8.505 28.485 8.505 28.485 8 30 C2.47612211 33.1784218 -4.57611425 35.64876992 -11 35 C-14.86217772 33.67844477 -18.40559363 31.92376679 -22 30 C-26.89573302 27.45421883 -31.75341664 25.65891969 -37 24 C-37.99 23.67 -38.98 23.34 -40 23 C-40 22.34 -40 21.68 -40 21 C-40.928125 20.896875 -41.85625 20.79375 -42.8125 20.6875 C-46.18404102 19.96030488 -46.8260045 19.47044943 -49 17 C-50.31921178 16.30580803 -51.65161278 15.63566826 -53 15 C-50.75267898 14.15875684 -48.50261215 13.32685168 -46.25 12.5 C-45.61578125 12.26152344 -44.9815625 12.02304688 -44.328125 11.77734375 C-40.96713393 10.55198242 -38.63128413 10 -35 10 C-35 9.34 -35 8.68 -35 8 C-34.03578125 7.66226563 -33.0715625 7.32453125 -32.078125 6.9765625 C-30.80203525 6.52617788 -29.52599624 6.07564947 -28.25 5.625 C-27.61578125 5.40328125 -26.9815625 5.1815625 -26.328125 4.953125 C-23.72109916 4.02980335 -21.19679979 3.10111438 -18.734375 1.8359375 C-17 1 -17 1 -14 1 C-14 0.34 -14 -0.32 -14 -1 C-9.60952754 -2.64642717 -4.14808213 -2.07404106 0 0 Z " fill="#E31F25" transform="translate(69,128)"/>
<path d="M0 0 C3.16330539 1.26532215 4.87767494 3.39616335 7.1875 5.875 C8.0125 6.7 8.8375 7.525 9.6875 8.375 C10.5125 9.2 11.3375 10.025 12.1875 10.875 C13.4559375 12.1125 13.4559375 12.1125 14.75 13.375 C17.1875 15.875 17.1875 15.875 19.1875 18.4375 C21.12876254 20.99155686 21.12876254 20.99155686 23.875 22.9375 C26.1875 24.875 26.1875 24.875 27.25 26.8125 C27.14995034 30.11413886 25.41246878 31.5329276 23.1875 33.875 C21.52083333 35.20833333 19.85416667 36.54166667 18.1875 37.875 C17.5275 38.7 16.8675 39.525 16.1875 40.375 C14.08430365 43.00399543 11.80850457 44.77819635 9.1875 46.875 C8.5275 47.7 7.8675 48.525 7.1875 49.375 C5.09325965 51.99280044 2.86143614 53.86954789 0.1875 55.875 C-5.31943084 54.14425031 -8.32300109 50.78342048 -11.8125 46.3125 C-13.93128607 43.73022947 -16.18452922 41.92609914 -18.8125 39.875 C-20.50012851 38.2295622 -22.1665349 36.56211423 -23.8125 34.875 C-24.76125 34.05 -25.71 33.225 -26.6875 32.375 C-28.8125 29.875 -28.8125 29.875 -28.77514648 27.57519531 C-27.48955429 23.9691467 -25.23029416 21.7751269 -22.53515625 19.171875 C-22.00860947 18.64861633 -21.48206268 18.12535767 -20.93955994 17.58624268 C-19.82867105 16.48574919 -18.71303998 15.39002464 -17.59301758 14.29882812 C-15.87566499 12.62564789 -14.17211174 10.93937671 -12.47070312 9.25 C-11.38879235 8.1815099 -10.30613526 7.11377484 -9.22265625 6.046875 C-8.71114517 5.54275085 -8.19963409 5.03862671 -7.67262268 4.51922607 C-2.82803301 -0.19503676 -2.82803301 -0.19503676 0 0 Z " fill="#FCFBF8" transform="translate(61.8125,69.125)"/>
<path d="M0 0 C0.66 0 1.32 0 2 0 C2 0.99 2 1.98 2 3 C2.66 3 3.32 3 4 3 C4.30292969 3.94359375 4.60585938 4.8871875 4.91796875 5.859375 C7.85919869 14.91423766 10.96383581 23.87838325 15.203125 32.42578125 C19.42762614 41.03840858 18.48697961 47.20427427 15.5 56.0625 C14.68848825 58.38401209 13.85122602 60.69256947 13 63 C12.34 63 11.68 63 11 63 C10.6596875 64.7634375 10.6596875 64.7634375 10.3125 66.5625 C8.77989164 73.54313956 6.328741 80.25376175 4 87 C3.34 87 2.68 87 2 87 C2 87.99 2 88.98 2 90 C1.34 90 0.68 90 0 90 C-0.26554688 89.32453125 -0.53109375 88.6490625 -0.8046875 87.953125 C-1.15789063 87.06109375 -1.51109375 86.1690625 -1.875 85.25 C-2.22304687 84.36828125 -2.57109375 83.4865625 -2.9296875 82.578125 C-3.93715443 80.0384159 -3.93715443 80.0384159 -5.1328125 77.859375 C-6 76 -6 76 -6 73 C-6.66 73 -7.32 73 -8 73 C-9 70 -10 67 -11 64 C-11.34208496 63.08613525 -11.68416992 62.17227051 -12.03662109 61.23071289 C-13.03066266 57.89717208 -13.25821028 55.22214096 -13.265625 51.75390625 C-13.26820312 50.58666016 -13.27078125 49.41941406 -13.2734375 48.21679688 C-13.26570312 47.01087891 -13.25796875 45.80496094 -13.25 44.5625 C-13.25773438 43.36044922 -13.26546875 42.15839844 -13.2734375 40.91992188 C-13.26017552 34.90893031 -13.10017492 29.65880465 -11 24 C-10.34 24 -9.68 24 -9 24 C-8.9175 23.01 -8.835 22.02 -8.75 21 C-8.21970428 17.16315451 -6.7758492 14.17619339 -4.9375 10.796875 C-3.86302477 8.85318414 -3.86302477 8.85318414 -3 6 C-2.34 6 -1.68 6 -1 6 C-0.67 4.02 -0.34 2.04 0 0 Z " fill="#E31F25" transform="translate(13,52)"/>
<path d="M0 0 C-0.33 1.98 -0.66 3.96 -1 6 C-1.66 6 -2.32 6 -3 6 C-3.103125 6.969375 -3.20625 7.93875 -3.3125 8.9375 C-3.94629879 13.48593839 -5.44755827 17.69417104 -7 22 C-7.66 22 -8.32 22 -9 22 C-8.95875 22.71542969 -8.9175 23.43085937 -8.875 24.16796875 C-9.01360313 27.30819586 -9.77103509 29.43211348 -11 32.3125 C-11.37125 33.19550781 -11.7425 34.07851562 -12.125 34.98828125 C-12.41375 35.65214844 -12.7025 36.31601563 -13 37 C-13.66 37 -14.32 37 -15 37 C-14.938125 37.928125 -14.87625 38.85625 -14.8125 39.8125 C-15 43 -15 43 -16.5 44.875 C-16.995 45.24625 -17.49 45.6175 -18 46 C-18.556875 45.278125 -19.11375 44.55625 -19.6875 43.8125 C-21.9851858 41.01801728 -24.41162713 38.52524182 -27 36 C-27.825 35.154375 -28.65 34.30875 -29.5 33.4375 C-31.92763704 30.99103107 -31.92763704 30.99103107 -34.5 29 C-39.27821635 25.17742692 -42.77247329 21.14013513 -46 16 C-44.56445975 15.49440092 -43.1264798 14.9957251 -41.6875 14.5 C-40.88699219 14.2215625 -40.08648437 13.943125 -39.26171875 13.65625 C-37 13 -37 13 -34 13 C-34 12.34 -34 11.68 -34 11 C-24.72949015 7.43550305 -15.78075993 4.82831835 -6 3 C-6 2.34 -6 1.68 -6 1 C-3.92446352 0.4465236 -2.15634036 0 0 0 Z " fill="#3B2E7B" transform="translate(107,51)"/>
<path d="M0 0 C0.99 0.33 1.98 0.66 3 1 C2.67 19.48 2.34 37.96 2 57 C-4.27 57 -10.54 57 -17 57 C-17 56.34 -17 55.68 -17 55 C-11.06 55 -5.12 55 1 55 C0.89171875 52.18662109 0.89171875 52.18662109 0.78125 49.31640625 C0.17544201 32.86996127 -0.14361536 16.46053027 0 0 Z " fill="#BAB7D3" transform="translate(172,86)"/>
<path d="M0 0 C0 0.66 0 1.32 0 2 C-0.60328125 2.30292969 -1.2065625 2.60585938 -1.828125 2.91796875 C-7.62368509 5.95596396 -11.83790136 8.51370409 -14 15 C-14.66 15 -15.32 15 -16 15 C-16.33 16.32 -16.66 17.64 -17 19 C-17.15377459 14.30987511 -17.07743087 10.46104361 -14.22265625 6.58984375 C-9.37716097 1.76187287 -6.93887537 -0.15084512 0 0 Z " fill="#453D88" transform="translate(257,55)"/>
<path d="M0 0 C0.33 0.99 0.66 1.98 1 3 C0.01 4.485 0.01 4.485 -1 6 C0.32 6.33 1.64 6.66 3 7 C1.68 7.99 0.36 8.98 -1 10 C0.32 11.65 1.64 13.3 3 15 C0.03 14.505 0.03 14.505 -3 14 C-3 13.34 -3 12.68 -3 12 C-4.32 11.34 -5.64 10.68 -7 10 C-6.34 9.67 -5.68 9.34 -5 9 C-5 8.01 -5 7.02 -5 6 C-4.34 6 -3.68 6 -3 6 C-2.690625 5.195625 -2.38125 4.39125 -2.0625 3.5625 C-1 1 -1 1 0 0 Z " fill="#ECB30E" transform="translate(20,133)"/>
<path d="M0 0 C1.58468677 0.45363171 3.16769924 0.91311452 4.75 1.375 C5.63171875 1.63023438 6.5134375 1.88546875 7.421875 2.1484375 C9.76080572 2.9209934 11.83442562 3.83625676 14 5 C10.51903008 6.74048496 6.67261433 6.01568638 3 5 C0.9375 2.4375 0.9375 2.4375 0 0 Z " fill="#ED855C" transform="translate(69,34)"/>
<path d="M0 0 C0.66 0.33 1.32 0.66 2 1 C1.3125 2.9375 1.3125 2.9375 0 5 C-2.625 5.75 -2.625 5.75 -5 6 C-5 6.66 -5 7.32 -5 8 C-6.32 7.67 -7.64 7.34 -9 7 C-6.03716687 4.61327331 -3.05729491 2.2646629 0 0 Z " fill="#554E92" transform="translate(243,115)"/>
<path d="M0 0 C0.33 0.99 0.66 1.98 1 3 C1.99 3.33 2.98 3.66 4 4 C5.38576923 5.62332967 6.72641268 7.28724465 8 9 C5.03 8.505 5.03 8.505 2 8 C2 7.34 2 6.68 2 6 C0.68 5.34 -0.64 4.68 -2 4 C-1.34 3.67 -0.68 3.34 0 3 C0 2.01 0 1.02 0 0 Z " fill="#ED775E" transform="translate(15,139)"/>
<path d="M0 0 C-5.18082051 3.34594658 -8.84777564 4.56826496 -15 5 C-14.01 4.67 -13.02 4.34 -12 4 C-12 3.34 -12 2.68 -12 2 C-10.37787941 1.47026689 -8.75218416 0.95146893 -7.125 0.4375 C-6.22007813 0.14746094 -5.31515625 -0.14257812 -4.3828125 -0.44140625 C-2 -1 -2 -1 0 0 Z " fill="#F08E88" transform="translate(78,157)"/>
<path d="M0 0 C0.66 0 1.32 0 2 0 C2.99 2.97 3.98 5.94 5 9 C1 7 1 7 -0.3125 4.5 C-1 2 -1 2 0 0 Z " fill="#DD673D" transform="translate(107,51)"/>
<path d="M0 0 C0.99 0.66 1.98 1.32 3 2 C0.75 4.5625 0.75 4.5625 -2 7 C-4.3125 6.8125 -4.3125 6.8125 -6 6 C-5.34 6 -4.68 6 -4 6 C-3.67 4.68 -3.34 3.36 -3 2 C-2.01 2 -1.02 2 0 2 C0 1.34 0 0.68 0 0 Z " fill="#EB6D48" transform="translate(106,140)"/>
<path d="M0 0 C0.91058531 3.07322544 1.08886184 5.80097361 1 9 C0.01 9.495 0.01 9.495 -1 10 C-1.33 10.99 -1.66 11.98 -2 13 C-2.66 13 -3.32 13 -4 13 C-3.52343588 11.20763933 -3.04366502 9.41613103 -2.5625 7.625 C-2.29566406 6.62726563 -2.02882813 5.62953125 -1.75390625 4.6015625 C-1 2 -1 2 0 0 Z " fill="#EA911A" transform="translate(23,118)"/>
<path d="M0 0 C0 3.11227195 -0.45627049 5.94152152 -1 9 C-1.66 9 -2.32 9 -3 9 C-3.33 10.32 -3.66 11.64 -4 13 C-3.91266424 11.39482903 -3.80447776 9.79078338 -3.6875 8.1875 C-3.62949219 7.29417969 -3.57148438 6.40085937 -3.51171875 5.48046875 C-2.93686419 2.69396 -2.1793144 1.75864246 0 0 Z " fill="#4D458C" transform="translate(244,61)"/>
<path d="M0 0 C0.88336837 2.4667645 1.1312406 3.63859372 0.22265625 6.140625 C-0.16019531 6.83671875 -0.54304688 7.5328125 -0.9375 8.25 C-1.31777344 8.95640625 -1.69804688 9.6628125 -2.08984375 10.390625 C-2.39019531 10.92171875 -2.69054687 11.4528125 -3 12 C-4.1764485 9.64710301 -4.03475851 8.58181049 -3.75 6 C-3.68296875 5.29875 -3.6159375 4.5975 -3.546875 3.875 C-3 2 -3 2 0 0 Z " fill="#ED8A62" transform="translate(116,121)"/>
<path d="M0 0 C3.3 0.99 6.6 1.98 10 3 C10 3.99 10 4.98 10 6 C5.56909529 4.79157144 3.01887244 3.48331435 0 0 Z " fill="#50488E" transform="translate(244,95)"/>
<path d="M0 0 C1.62600941 0.0870005 3.25089678 0.1951781 4.875 0.3125 C5.77992188 0.37050781 6.68484375 0.42851563 7.6171875 0.48828125 C10 1 10 1 12 4 C9.36 3.67 6.72 3.34 4 3 C4 2.34 4 1.68 4 1 C2.68 0.67 1.36 0.34 0 0 Z " fill="#281F75" transform="translate(283,90)"/>
<path d="M0 0 C4.30840713 1.07710178 7.63576723 2.03947516 11 5 C8.69 5 6.38 5 4 5 C4 4.01 4 3.02 4 2 C2.68 1.67 1.36 1.34 0 1 C0 0.67 0 0.34 0 0 Z " fill="#615A99" transform="translate(285,52)"/>
<path d="M0 0 C3.96 0 7.92 0 12 0 C12.66 1.32 13.32 2.64 14 4 C12.04020573 3.71831703 10.08217622 3.42433283 8.125 3.125 C6.48917969 2.88136719 6.48917969 2.88136719 4.8203125 2.6328125 C2 2 2 2 0 0 Z " fill="#6D67A1" transform="translate(273,106)"/>
<path d="M0 0 C2.31 0.33 4.62 0.66 7 1 C4.48300155 3.51699845 2.42445854 4.10964078 -1 5 C-3.375 4.625 -3.375 4.625 -5 4 C-4.01 3.67 -3.02 3.34 -2 3 C-1.34 2.01 -0.68 1.02 0 0 Z " fill="#A64E42" transform="translate(94,52)"/>
<path d="M0 0 C0 0.99 0 1.98 0 3 C-1.45817797 3.16802051 -2.9165484 3.33437143 -4.375 3.5 C-5.59316406 3.63921875 -5.59316406 3.63921875 -6.8359375 3.78125 C-9 4 -9 4 -11 4 C-11 3.34 -11 2.68 -11 2 C-9.5422647 1.664061 -8.08378894 1.33133376 -6.625 1 C-5.40683594 0.7215625 -5.40683594 0.7215625 -4.1640625 0.4375 C-2 0 -2 0 0 0 Z " fill="#EA7343" transform="translate(51,36)"/>
<path d="M0 0 C0.66 0 1.32 0 2 0 C2 0.66 2 1.32 2 2 C2.66 2 3.32 2 4 2 C4.33 4.97 4.66 7.94 5 11 C3 8 3 8 3 5 C2.34 5 1.68 5 1 5 C0.67 3.35 0.34 1.7 0 0 Z " fill="#EB6364" transform="translate(4,120)"/>
<path d="M0 0 C-0.33 0.99 -0.66 1.98 -1 3 C-2.33333333 3.33333333 -3.66666667 3.66666667 -5 4 C-5.33 4.99 -5.66 5.98 -6 7 C-6 6.01 -6 5.02 -6 4 C-6.66 3.67 -7.32 3.34 -8 3 C-5.48696401 0.48696401 -3.51117809 0 0 0 Z " fill="#ED763D" transform="translate(21,48)"/>
<path d="M0 0 C1.32 0 2.64 0 4 0 C4.93065133 2.60582371 5.14917407 3.64198224 4.0625 6.25 C3.5365625 7.11625 3.5365625 7.11625 3 8 C2.67 8 2.34 8 2 8 C1.34 5.36 0.68 2.72 0 0 Z " fill="#4A428B" transform="translate(287,110)"/>
<path d="M0 0 C-2.5654594 2.5654594 -4.47686668 2.54046087 -8 3 C-7.67 2.01 -7.34 1.02 -7 0 C-4.3333581 -1.33332095 -2.83319697 -0.67102033 0 0 Z " fill="#D2592D" transform="translate(107,50)"/>
<path d="M0 0 C-3.85756507 2.15305957 -6.55129785 3.39253254 -11 3 C-7.17860188 -0.1390056 -4.83859894 -1.61286631 0 0 Z " fill="#ED5F15" transform="translate(82,59)"/>
</svg>
