<?xml version="1.0" encoding="UTF-8"?>
<svg version="1.1" xmlns="http://www.w3.org/2000/svg" width="746" height="461">
<path d="M0 0 C246.18 0 492.36 0 746 0 C746 152.13 746 304.26 746 461 C499.82 461 253.64 461 0 461 C0 308.87 0 156.74 0 0 Z " fill="#FEFEFE" transform="translate(0,0)"/>
<path d="M0 0 C1.16625412 -0.00860046 2.33250824 -0.01720093 3.53410339 -0.02606201 C5.43252235 -0.03245193 5.43252235 -0.03245193 7.36929321 -0.03897095 C8.72664088 -0.04688162 10.08398649 -0.05515116 11.44132996 -0.06375122 C15.88295517 -0.08984808 20.32458926 -0.10526116 24.76626587 -0.11953735 C26.29963816 -0.12490111 27.8330104 -0.13027863 29.3663826 -0.13566971 C35.74546939 -0.15727557 42.12455377 -0.17601191 48.50366783 -0.1872921 C57.6264746 -0.20353481 66.74885587 -0.2367463 75.87150228 -0.29369295 C82.29802206 -0.33243544 88.72442819 -0.35192955 95.15106165 -0.35721266 C98.98445055 -0.36085871 102.8173843 -0.37280071 106.65064621 -0.4053154 C110.25744948 -0.43547467 113.86352396 -0.44168061 117.47042656 -0.42993164 C119.41551939 -0.42960713 121.3605678 -0.4540173 123.30549622 -0.47930908 C130.44227901 -0.42864989 135.64818362 0.22079893 141.05532837 5.15390015 C145.20483172 10.47377624 146.512 14.41799357 146.05532837 21.15390015 C144.16942206 26.58974773 140.68735157 29.92201123 136.05532837 33.15390015 C132.99760844 34.17314012 130.92080123 34.28344012 127.71939087 34.29193115 C126.05842628 34.30011116 126.05842628 34.30011116 124.36390686 34.30845642 C122.54053551 34.31001991 122.54053551 34.31001991 120.68032837 34.31161499 C118.71536711 34.31941457 116.75040585 34.32721819 114.78544521 34.33517289 C112.67139761 34.34288845 110.55735433 34.3482704 108.44329834 34.35313034 C104.02934815 34.36382597 99.61547421 34.38407792 95.2015686 34.40625 C82.64911418 34.46811218 70.09666328 34.52208069 57.5440979 34.55526733 C50.61254974 34.5736734 43.68112855 34.60268842 36.74967384 34.64327204 C33.08565747 34.66425112 29.42180052 34.67978621 25.75772095 34.68207932 C21.66013241 34.68464656 17.5629839 34.71021064 13.46548462 34.73739624 C12.26609756 34.73439011 11.06671051 34.73138397 9.83097839 34.72828674 C-2.58750276 34.85021073 -11.59802944 37.19128698 -20.66342163 45.7828064 C-25.94424497 51.3613232 -28.03600598 57.53038566 -28.31967163 65.15390015 C-27.95933263 74.4794734 -24.44063626 81.48971333 -17.94467163 88.15390015 C-12.01266907 92.86056627 -5.74573194 95.40286244 1.8861084 95.40545654 C3.02712006 95.41083939 4.16813171 95.41622223 5.34371948 95.42176819 C6.58127991 95.4176442 7.81884033 95.4135202 9.09390259 95.40927124 C11.11170665 95.41482872 13.12951071 95.42039052 15.14731431 95.42611527 C17.30883452 95.4304462 19.4703087 95.42998789 21.63183212 95.42829514 C26.1460379 95.4254534 30.66008827 95.43984615 35.17425537 95.45727539 C48.00812455 95.50421993 60.84198257 95.52823879 73.67593384 95.53475952 C80.77009347 95.53851602 87.86407655 95.556591 94.95816052 95.58985388 C99.44026415 95.61001291 103.92191077 95.61246557 108.40404105 95.60157371 C111.85545018 95.59834261 115.30660673 95.62108222 118.75796509 95.63973999 C119.99147705 95.63156754 121.22498901 95.62339508 122.49588013 95.61497498 C129.48995455 95.68220738 134.12081152 96.36099141 140.05532837 100.15390015 C144.18444876 104.3916816 145.79161346 108.14307396 146.55532837 113.96640015 C146.41860146 119.13272422 143.64772216 122.63542392 140.05532837 126.15390015 C134.31022958 131.3799213 128.3169871 130.70366653 120.84902954 130.63632202 C119.50315455 130.6385099 118.15728146 130.6425097 116.81141663 130.6481781 C113.92048032 130.65672385 111.02991584 130.65298672 108.13899803 130.63975525 C103.56145026 130.61936244 98.98427452 130.62942079 94.40672302 130.64401245 C83.86029874 130.67301025 73.31398471 130.66233349 62.76753998 130.65131378 C53.10650068 130.64162481 43.44565677 130.64043642 33.78465062 130.67119455 C29.24088436 130.68452046 24.69768044 130.6786762 20.15394819 130.65782928 C17.31820045 130.64880058 14.4826662 130.65635577 11.64693642 130.6682415 C9.71997214 130.67136456 7.79300708 130.65465256 5.86611938 130.63719177 C-1.31658208 130.68733621 -6.68278192 131.56407238 -12.94467163 135.15390015 C-13.74260132 135.59991577 -14.54053101 136.0459314 -15.36264038 136.50546265 C-21.56806805 140.9711788 -26.58196761 147.47056895 -27.94467163 155.15390015 C-29.01066652 164.86929662 -27.43790587 172.03027535 -21.94467163 180.15390015 C-16.67547094 186.6968262 -7.86703216 190.45874158 0.30268478 191.61250687 C3.81319338 191.78223708 7.2924012 191.80416828 10.80679321 191.76571655 C12.78469345 191.77421379 12.78469345 191.77421379 14.80255127 191.78288269 C17.6443558 191.79495831 20.48555732 191.791719 23.32734299 191.77605057 C27.82478193 191.75153002 32.32170345 191.76330854 36.81915283 191.77972412 C44.7375119 191.80410429 52.65563039 191.79845292 60.57400513 191.78591919 C72.51281584 191.76726093 84.45158219 191.77222677 96.39035952 191.80595338 C100.85796107 191.81743801 105.32517966 191.81307083 109.79275966 191.79593301 C111.9006593 191.78992974 114.00842969 191.7906597 116.11633301 191.79432678 C118.68135224 191.79856268 121.24642114 191.79207358 123.81137085 191.77272034 C130.63909406 191.80467087 135.6783728 192.03888872 140.91860962 196.87265015 C141.39685181 197.46046265 141.87509399 198.04827515 142.36782837 198.65390015 C142.85896118 199.24171265 143.35009399 199.82952515 143.85610962 200.43515015 C146.47246822 204.18498006 146.41811915 207.72785266 146.05532837 212.15390015 C143.94256626 218.30846802 140.83682358 221.87326221 135.25585842 225.23916912 C132.49558733 226.38657704 130.33564693 226.40853272 127.34684753 226.41459656 C125.59980782 226.42522377 125.59980782 226.42522377 123.81747437 226.43606567 C121.90602631 226.43234955 121.90602631 226.43234955 119.95596313 226.42855835 C118.59717021 226.43290693 117.23837973 226.43809056 115.8795929 226.44404602 C112.18896434 226.45744172 108.49843818 226.45801333 104.80779004 226.45548272 C101.71954336 226.45441192 98.63131729 226.45929995 95.54307503 226.46408814 C88.24644391 226.47518846 80.94986424 226.47561988 73.65322876 226.46957397 C66.15183074 226.46355318 58.65062119 226.47579554 51.14925534 226.49714404 C44.69296188 226.51483583 38.23672795 226.52074894 31.78041118 226.5175063 C27.9318845 226.51570298 24.08349179 226.51823229 20.23498726 226.53222084 C16.60614596 226.5449159 12.9775943 226.5427465 9.34875679 226.52980995 C7.40347646 226.52636382 5.45818682 226.53753986 3.51293945 226.54937744 C-7.58768805 226.48395005 -18.17568996 224.73941739 -28.06967163 219.52890015 C-28.73998413 219.18262573 -29.41029663 218.83635132 -30.10092163 218.47958374 C-47.35993105 209.24254206 -57.92064207 194.54304301 -63.94467163 176.15390015 C-67.20817683 159.83637415 -64.77888301 142.13841703 -56.1043396 127.85458374 C-52.65287438 122.79291917 -48.29022331 118.44444484 -43.94467163 114.15390015 C-44.79766931 113.00719631 -45.6521703 111.8616108 -46.50717163 110.71640015 C-47.05502319 109.9790564 -47.60287476 109.24171265 -48.16732788 108.48202515 C-49.30848337 106.98723686 -50.48099281 105.51559396 -51.69076538 104.07577515 C-63.28916752 90.12669463 -66.51965295 73.8815032 -64.94467163 56.15390015 C-62.35572478 37.89109234 -51.33402078 23.17668459 -36.94467163 12.15390015 C-26.33083046 4.48624976 -13.09448591 0.0723075 0 0 Z " fill="#808080" transform="translate(544.9446716308594,29.846099853515625)"/>
<path d="M0 0 C1.33451915 -0.00570804 2.66903341 -0.01267398 4.00354004 -0.02079773 C7.61991683 -0.03871225 11.23605068 -0.03756213 14.85245848 -0.03185534 C17.88336942 -0.02875605 20.91423421 -0.03486529 23.94513857 -0.04089409 C31.10962384 -0.05493679 38.27398992 -0.05338473 45.43847656 -0.04199219 C52.79223173 -0.03055583 60.14562028 -0.04451115 67.49932706 -0.07138866 C73.83852505 -0.09367788 80.17760912 -0.10015223 86.51684344 -0.09431225 C90.29113758 -0.0909674 94.0651978 -0.09318846 97.83945847 -0.11056328 C133.56127197 -0.25944423 133.56127197 -0.25944423 149.27978516 8.09155273 C150.26881836 8.60310913 150.26881836 8.60310913 151.27783203 9.125 C157.3077955 12.37843401 162.16973615 16.45571324 166.90478516 21.40405273 C167.60990234 22.08983398 168.31501953 22.77561523 169.04150391 23.48217773 C180.46922124 35.23640128 185.40182742 50.59618784 185.25878906 66.70629883 C185.06507981 73.25257255 184.04675943 79.19581022 181.90478516 85.40405273 C181.58767578 86.3747168 181.27056641 87.34538086 180.94384766 88.34545898 C177.7813379 96.94703695 172.63934315 103.40594807 166.90478516 110.40405273 C165.89642373 111.73107384 164.892349 113.06148228 163.90478516 114.40405273 C164.38947266 114.83073242 164.87416016 115.25741211 165.37353516 115.69702148 C177.31963509 126.839057 184.15343436 141.07450941 185.14306641 157.31420898 C185.62212168 175.33057166 180.17305427 191.13123193 168.30712891 204.87280273 C157.05651242 216.72711083 140.58422332 225.77205128 123.99961948 226.53827381 C122.472941 226.54468403 122.472941 226.54468403 120.91542053 226.55122375 C119.7393071 226.55837906 118.56319366 226.56553436 117.35144043 226.57290649 C115.43663879 226.57693985 115.43663879 226.57693985 113.4831543 226.58105469 C112.11433238 226.5873266 110.74551214 226.59397403 109.37669373 226.60096741 C104.89778814 226.62191361 100.41888255 226.63235697 95.93994141 226.64233398 C94.39416423 226.64638427 92.84838722 226.65050127 91.3026104 226.65468407 C84.04269238 226.67371043 76.78278441 226.68795003 69.52284628 226.69629604 C61.15475238 226.70607659 52.78692242 226.73242797 44.41892153 226.77279693 C37.94061088 226.80297361 31.46237589 226.81776614 24.98399633 226.82107705 C21.11885579 226.82342458 17.25399807 226.83234708 13.38893318 226.85753822 C9.75347803 226.8808533 6.11849133 226.88503874 2.48298073 226.87477684 C0.51983243 226.87404723 -1.44329227 226.89311126 -3.40634155 226.9128418 C-10.18900756 226.87289247 -14.6314899 226.56730883 -20.09521484 222.40405273 C-24.80034642 217.20364415 -25.40092006 214.0331617 -25.30224609 207.16186523 C-24.97055221 202.74345236 -23.81639113 199.89736644 -20.44287109 196.97045898 C-15.91899548 193.59428966 -12.48090506 192.28219048 -6.77705383 192.2592926 C-5.67382278 192.2523941 -4.57059174 192.24549561 -3.43392944 192.23838806 C-2.22298615 192.23577469 -1.01204285 192.23316132 0.2355957 192.23046875 C2.19290673 192.22020369 4.15021774 192.2099365 6.10752833 192.19958961 C8.21278727 192.18935803 10.31804384 192.18150665 12.42331505 192.17425728 C16.81543789 192.15879304 21.20748894 192.13484199 25.5995636 192.10935974 C38.08952287 192.03819474 50.57952365 191.97846578 63.06958008 191.92724609 C69.96701467 191.89888566 76.86437818 191.8634712 83.76173812 191.82059234 C88.12243961 191.79390646 92.4830607 191.7759479 96.84382761 191.7645551 C100.20494102 191.75323426 103.56594256 191.72912553 106.92700195 191.70703125 C108.1278241 191.70644211 109.32864624 191.70585297 110.56585693 191.70524597 C121.23386271 191.61245771 131.8622314 190.02792767 139.99072266 182.46264648 C146.21278735 175.12481069 148.58988179 166.3693199 148.25634766 156.81811523 C147.16878524 149.35018665 143.07527268 142.67886509 137.15869141 138.03295898 C128.0068668 131.82739582 118.55878302 130.96179618 107.74755859 131.00341797 C106.46826477 130.9964389 105.18897095 130.98945984 103.87091064 130.98226929 C101.10889453 130.96726028 98.34707039 130.9613728 95.58501434 130.96279716 C91.21381555 130.96484497 86.84287206 130.94517244 82.47174072 130.92262268 C73.98710942 130.88180492 65.502499 130.86307372 57.01779175 130.84645081 C46.20346303 130.82403472 35.38919406 130.79049432 24.57496285 130.73925167 C20.23291012 130.71938164 15.89099274 130.70975363 11.54889631 130.70829952 C9.49918155 130.70620806 7.44953869 130.69964937 5.39984131 130.69113159 C2.90561854 130.68088493 0.4113524 130.67770956 -2.08288574 130.68302917 C-11.02180371 130.62776715 -16.51176328 129.5386326 -23.09521484 123.40405273 C-26.36850821 118.49411269 -25.74507028 113.13522465 -25.09521484 107.40405273 C-23.47233169 102.826892 -20.52397221 100.35050038 -16.22831726 98.24763489 C-10.20390697 95.69729702 -4.35641093 95.88361561 2.09692383 95.96923828 C4.08572115 95.97062964 6.0745185 95.97201419 8.06331599 95.97314322 C10.18561692 95.97803724 12.30765704 95.9926521 14.42989159 96.00989342 C18.87459977 96.04480239 23.31892873 96.04566263 27.76374817 96.04096985 C39.60220079 96.03349768 51.44045112 96.06657034 63.278745 96.12740117 C71.06401731 96.1673619 78.84875739 96.18704359 86.6341303 96.16902381 C90.32258676 96.16180118 94.00992277 96.1679871 97.69820213 96.20709801 C120.79913838 97.0558385 120.79913838 97.0558385 140.23625183 86.12797546 C146.13893558 79.45283827 148.51371141 71.70056778 148.18603516 62.88061523 C147.3303113 55.34549124 144.40767532 48.69529328 138.90478516 43.40405273 C128.64224424 36.32697941 119.1508169 35.10682361 106.99047852 35.1328125 C105.02971481 35.1247896 103.06895111 35.11676427 101.10818779 35.10864723 C99.01446073 35.10182001 96.92077731 35.09979404 94.82703972 35.09909248 C90.45156344 35.0971415 86.0762433 35.07903369 81.70082092 35.05833435 C70.83702895 35.00929292 59.97319497 34.97826256 49.10931396 34.95703125 C40.65626473 34.94048992 32.20335073 34.91764083 23.75039202 34.8740105 C19.40523503 34.85229195 15.06033534 34.84417073 10.71512783 34.84640324 C7.37324457 34.84433911 4.03153005 34.82297072 0.68969727 34.8046875 C-1.10514603 34.81155327 -1.10514603 34.81155327 -2.93624878 34.81855774 C-10.73595178 34.75068711 -15.9194218 34.1656119 -21.97021484 28.90405273 C-25.70848055 24.50609308 -25.55251837 20.0533692 -25.50537109 14.48999023 C-24.86761111 9.69160557 -22.7451604 6.5207758 -19.09521484 3.40405273 C-13.17387747 -0.65316282 -6.89698662 -0.02496419 0 0 Z " fill="#808080" transform="translate(55.09521484375,29.595947265625)"/>
<path d="M0 0 C1.33779065 -0.00627427 2.6755796 -0.01292191 4.0133667 -0.01991272 C8.38463149 -0.04082958 12.75589617 -0.051299 17.12719727 -0.0612793 C18.63735535 -0.06533058 20.14751325 -0.06944761 21.65767097 -0.07362938 C28.75046559 -0.09264872 35.84324997 -0.10689017 42.93606514 -0.11524135 C51.10548011 -0.12502143 59.2746247 -0.15137453 67.44394439 -0.19174224 C73.77282289 -0.22193671 80.10162394 -0.2367131 86.43057305 -0.24002236 C90.20463073 -0.2423677 93.97839845 -0.25126154 97.75237846 -0.27648354 C101.30249252 -0.29983016 104.85212692 -0.30397149 108.40229797 -0.29372215 C110.31634136 -0.29299404 112.23036076 -0.31203534 114.14430237 -0.33178711 C121.65855875 -0.28655765 127.56926673 0.26502825 133.30518246 5.62438488 C137.45656091 10.26670936 138.12884789 13.94559851 138.03735352 20.0871582 C137.38670691 24.92182396 134.72949763 28.2748318 131.19360352 31.55200195 C127.49690166 34.01646985 124.71443673 34.30362746 120.37547302 34.31503296 C118.69971947 34.32321297 118.69971947 34.32321297 116.9901123 34.33155823 C115.76360962 34.33260056 114.53710693 34.33364288 113.2734375 34.3347168 C111.29106441 34.34251627 109.30869133 34.35031979 107.32631886 34.3582747 C105.19365135 34.36599019 103.06098812 34.3713721 100.9283123 34.37623215 C96.47683152 34.38692531 92.02542641 34.40717605 87.57398987 34.42935181 C74.91492196 34.49122409 62.25585773 34.54520235 49.59667969 34.57836914 C42.60617795 34.59676443 35.61580236 34.62576517 28.62539345 34.66637385 C24.92955104 34.68736888 21.23386712 34.70289033 17.53796196 34.70518112 C13.40664279 34.70774465 9.27576172 34.73329066 5.14453125 34.76049805 C3.32603165 34.75598885 3.32603165 34.75598885 1.47079468 34.75138855 C-9.51887365 34.85861646 -18.72430071 36.96309135 -27.24389648 44.17700195 C-33.26730242 50.41083255 -36.26683848 57.53814807 -36.68139648 66.17700195 C-36.49980516 71.50092939 -34.84902052 75.58375694 -32.24389648 80.17700195 C-31.71795898 81.1205957 -31.71795898 81.1205957 -31.18139648 82.08325195 C-26.84126116 88.95513289 -19.9670459 93.04483306 -12.24389648 95.17700195 C-9.34530661 95.452607 -6.46493475 95.44747113 -3.55493164 95.43237305 C-2.70193481 95.4359935 -1.84893799 95.43961395 -0.97009277 95.44334412 C0.87628488 95.45021772 2.72268277 95.45274738 4.56907272 95.45139694 C7.50611646 95.45042654 10.4427993 95.46343851 13.37979126 95.4803772 C21.72866966 95.52646706 30.07751237 95.55120731 38.42651367 95.55786133 C43.54294878 95.56292085 48.65901032 95.58740027 53.77531815 95.62318802 C55.71024948 95.63289084 57.64523287 95.63537088 59.58018112 95.63001633 C81.93016936 95.57111653 102.72530248 99.79596305 119.45532227 115.7512207 C133.48133859 130.44813766 138.30298804 147.15086616 137.95922852 167.00512695 C137.42551473 181.54557315 129.59105246 196.46572181 119.51000977 206.71606445 C104.05123666 220.53028723 87.43379738 226.47269093 66.91796875 226.48339844 C65.54047198 226.49103372 64.16297943 226.49946353 62.78549194 226.50862122 C59.06865567 226.53042752 55.35190156 226.53934528 51.63500857 226.54444766 C49.30868049 226.54810516 46.98237352 226.5543521 44.65605354 226.56144905 C36.52899362 226.58588709 28.40199712 226.59898496 20.27490234 226.60253906 C12.71582605 226.60617871 5.15715464 226.63611895 -2.40179783 226.67794365 C-8.90907088 226.71267917 -15.41620977 226.72808799 -21.92357486 226.7287851 C-25.80272616 226.72957625 -29.68146336 226.73824129 -33.56051826 226.76678276 C-37.20760428 226.79302292 -40.85393432 226.79513643 -44.50107193 226.77912712 C-46.46758541 226.77645887 -48.4340846 226.79845115 -50.40046692 226.82131958 C-57.64960943 226.76156035 -62.67987078 226.03873098 -68.24389648 221.17700195 C-70.11889648 219.17700195 -70.11889648 219.17700195 -71.24389648 217.17700195 C-71.65639648 216.45512695 -72.06889648 215.73325195 -72.49389648 214.98950195 C-73.94571567 209.54518002 -73.10324124 204.8036188 -70.49389648 199.86450195 C-67.20335435 195.93413219 -64.35154473 193.11934436 -59.24389648 192.17700195 C-57.42473057 192.08374098 -55.60252383 192.04380031 -53.78097534 192.03897095 C-52.67084579 192.03351761 -51.56071625 192.02806427 -50.41694641 192.02244568 C-49.20338974 192.02140335 -47.98983307 192.02036102 -46.73950195 192.01928711 C-44.77189782 192.01148771 -42.8042937 192.00368427 -40.83669019 191.99572921 C-38.72298518 191.98802095 -36.60928449 191.98263499 -34.49557114 191.97777176 C-30.08181561 191.96706696 -25.66813607 191.94681376 -21.25442505 191.9246521 C-8.7037506 191.86281686 3.84691967 191.80879138 16.39770508 191.77563477 C23.33071594 191.75723903 30.26359961 191.72823947 37.19651687 191.68763006 C40.86104549 191.66663916 44.52541437 191.65111413 48.19000626 191.64882278 C52.28529522 191.64625915 56.38014231 191.62071304 60.4753418 191.59350586 C61.67675308 191.59651199 62.87816437 191.59951813 64.11598206 191.60261536 C74.8919906 191.49655237 84.52443118 189.51095032 92.75610352 182.17700195 C100.23255506 173.17159503 101.78826349 165.69312394 100.75610352 154.17700195 C98.85113361 148.03525249 95.66341705 143.34821846 90.75610352 139.17700195 C90.07547852 138.49637695 89.39485352 137.81575195 88.69360352 137.11450195 C78.04285822 130.08954229 66.20765257 130.6029145 53.97485352 130.63793945 C52.07017906 130.62801077 50.16551418 130.61606137 48.26086426 130.60220337 C43.27443319 130.57002336 38.28822143 130.55946649 33.30169678 130.55535889 C25.32342354 130.54656502 17.34532886 130.5107433 9.36720276 130.46318436 C6.60219393 130.45073148 3.83741848 130.45134546 1.0723877 130.45346069 C-20.4610087 130.40396955 -38.49386397 126.01827748 -54.43139648 110.61450195 C-67.23840031 97.63736668 -72.5645458 82.09881961 -72.74389648 64.05200195 C-72.67152232 55.48224325 -72.10789326 47.96555972 -68.24389648 40.17700195 C-67.64254883 38.82541992 -67.64254883 38.82541992 -67.02905273 37.4465332 C-59.26990166 21.50091549 -44.19313188 9.18280865 -27.64233398 3.2434082 C-18.37274287 0.31690587 -9.67012387 0.02091346 0 0 Z " fill="#808080" transform="translate(329.243896484375,29.822998046875)"/>
<path d="M0 0 C8.25 0 16.5 0 25 0 C33.1742339 9.85099983 33.1742339 9.85099983 35.234375 14.359375 C37.80924055 19.70998214 40.81655498 24.59878755 44.0625 29.5625 C45.0605257 31.14118929 46.05532589 32.72192235 47.046875 34.3046875 C48.99011767 37.39620993 50.93764979 40.48492879 52.890625 43.5703125 C58.68116917 52.71879033 64.44371108 61.88459028 70.1875 71.0625 C70.84790283 72.11655029 71.50830566 73.17060059 72.1887207 74.2565918 C72.80062256 75.23539307 73.41252441 76.21419434 74.04296875 77.22265625 C74.58977295 78.09672119 75.13657715 78.97078613 75.69995117 79.87133789 C77 82 77 82 78 84 C78.33 56.28 78.66 28.56 79 0 C86.59 0 94.18 0 102 0 C102 41.91 102 83.82 102 127 C94.08 127 86.16 127 78 127 C71.02184277 118.83555604 71.02184277 118.83555604 69.35546875 114.97265625 C67.0088739 109.88287304 64.12271721 105.31048606 61.0625 100.625 C60.04645764 99.01883449 59.03344443 97.41074886 58.0234375 95.80078125 C56.05320404 92.67080536 54.07958416 89.5430287 52.1015625 86.41796875 C45.72043934 76.33444354 39.38109573 66.22559 33.07495117 56.0949707 C32.47271729 55.12906006 31.8704834 54.16314941 31.25 53.16796875 C30.71890625 52.31485107 30.1878125 51.4617334 29.640625 50.58276367 C27.80500654 47.69303038 25.89899193 44.84848789 24 42 C23.67 70.05 23.34 98.1 23 127 C15.41 127 7.82 127 0 127 C0 85.09 0 43.18 0 0 Z " fill="#2388C8" transform="translate(251,303)"/>
<path d="M0 0 C1.34771484 -0.01160156 1.34771484 -0.01160156 2.72265625 -0.0234375 C16.19056431 0.01577038 28.56129258 4.42108255 38.30859375 13.85546875 C45.17940157 21.36314289 49.5 28.91040217 49.5 39.25 C41.58 39.25 33.66 39.25 25.5 39.25 C24.51 36.28 23.52 33.31 22.5 30.25 C19.84690652 25.27544973 16.00537619 23.67820666 10.8359375 21.98046875 C2.26700128 20.1041326 -7.85757691 19.63615384 -15.7265625 24.0078125 C-18.75037705 26.12581476 -21.08743457 27.82045412 -22.5 31.25 C-23.33341163 36.73414617 -23.49588326 41.47163704 -20.75 46.375 C-17.4475687 49.12702608 -14.53922958 50.42328751 -10.296875 51.03125 C-9.08547852 51.20889893 -9.08547852 51.20889893 -7.84960938 51.39013672 C-6.99173828 51.5088916 -6.13386719 51.62764648 -5.25 51.75 C-3.91678711 51.94553467 -3.91678711 51.94553467 -2.55664062 52.14501953 C1.60713118 52.74633733 5.7663232 53.29759083 9.953125 53.7109375 C23.81478718 55.09776098 35.00565865 59.28108452 44.75 69.4375 C51.32818227 77.65124125 52.36218962 87.04963361 51.5 97.25 C50.23470041 107.3897296 44.41213 116.02018335 36.5 122.25 C21.04614287 132.03596684 3.25699304 133.1600152 -14.375 130.125 C-27.62052397 127.0574667 -37.87728588 120.82721563 -45.41796875 109.32421875 C-49.39258395 102.04529163 -49.67882454 98.28293011 -50.5 89.25 C-42.58 89.25 -34.66 89.25 -26.5 89.25 C-25.51 92.55 -24.52 95.85 -23.5 99.25 C-20.68522701 104.87954599 -17.25798899 107.16313871 -11.5 109.25 C-1.39588312 111.58171928 9.8134583 110.96880888 19.5 107.25 C22.65190793 105.12812734 24.39818309 102.40272536 26.5 99.25 C27.23031966 93.42281785 27.75338925 88.04055607 24.3125 83.125 C23.384375 82.50625 22.45625 81.8875 21.5 81.25 C20.73816406 80.73953125 19.97632812 80.2290625 19.19140625 79.703125 C12.38449607 76.02798627 3.70379797 76.22528058 -3.875 75.875 C-18.08831523 74.99491856 -29.92356882 71.40749211 -39.875 60.9375 C-44.27255872 55.406293 -46.90299107 48.2648549 -47.5 41.25 C-47.56316406 40.58613281 -47.62632813 39.92226563 -47.69140625 39.23828125 C-48.20149935 29.80978613 -44.26152427 22.39227439 -38.33984375 15.28125 C-28.0933094 3.968728 -14.97824629 -0.12893756 0 0 Z " fill="#2288C8" transform="translate(80.5,300.75)"/>
<path d="M0 0 C7.30905297 6.04575987 12.25872327 13.77616981 15.25 22.75 C15.25 25.06 15.25 27.37 15.25 29.75 C7.66 29.75 0.07 29.75 -7.75 29.75 C-9.07 26.78 -10.39 23.81 -11.75 20.75 C-14.76183347 15.90955336 -18.48812636 13.66938047 -23.75 11.75 C-27.10453194 11.20992719 -30.35840898 11.18833471 -33.75 11.25 C-34.60078125 11.23453125 -35.4515625 11.2190625 -36.328125 11.203125 C-42.25321155 11.23947522 -46.81473431 12.39110368 -51.75 15.75 C-56.30072208 20.65077763 -57.04943154 23.75077885 -56.96484375 30.2734375 C-56.68315491 33.52054159 -55.90142982 35.30182123 -53.75 37.75 C-49.91085876 40.47960219 -46.84304497 41.25063428 -42.1875 41.75 C-40.85918095 41.90590757 -39.53106545 42.06355619 -38.203125 42.22265625 C-37.49091797 42.30531738 -36.77871094 42.38797852 -36.04492188 42.47314453 C-0.82192067 46.72238744 -0.82192067 46.72238744 9.39453125 58.1484375 C11.19509065 60.61236089 12.76175839 63.08727711 14.25 65.75 C14.60964844 66.37390625 14.96929687 66.9978125 15.33984375 67.640625 C18.93386362 75.25928463 18.46575143 85.77736959 16.0625 93.6875 C11.16809424 105.82107334 3.45406769 112.5413695 -8.0546875 118.26953125 C-23.55065915 124.47774822 -44.06007105 123.60929378 -59.38671875 117.23828125 C-72.15016042 110.7619625 -79.7903363 101.54806768 -84.3046875 87.953125 C-84.75 85.75 -84.75 85.75 -84.75 79.75 C-76.83 79.75 -68.91 79.75 -60.75 79.75 C-60.09 82.39 -59.43 85.03 -58.75 87.75 C-55.64233563 93.41038867 -51.78625895 97.67261779 -45.6015625 99.8671875 C-36.06248701 102.05362874 -24.59313012 102.30439901 -15.66796875 97.95703125 C-11.46517365 95.31209502 -8.66216755 92.30277987 -6.75 87.75 C-6.11863644 83.72256505 -5.84955387 79.60886091 -7.66015625 75.87109375 C-12.30460044 69.912466 -18.27561738 68.43070646 -25.38916016 67.52197266 C-26.3332373 67.41159668 -27.27731445 67.3012207 -28.25 67.1875 C-29.22888184 67.06165527 -30.20776367 66.93581055 -31.21630859 66.80615234 C-35.4346481 66.26469799 -39.65525855 65.75665659 -43.8828125 65.29296875 C-55.99023582 63.84386999 -66.65863513 60.31402637 -74.75 50.75 C-80.84789092 40.89393649 -81.9222376 31.12972195 -80.75 19.75 C-79.6729223 15.88121419 -78.11272944 12.97846237 -75.75 9.75 C-75.25371094 9.04746094 -74.75742187 8.34492188 -74.24609375 7.62109375 C-57.62362005 -13.48744515 -21.10022766 -15.54194621 0 0 Z " fill="#2288C8" transform="translate(450.75,310.25)"/>
<path d="M0 0 C29.7 0 59.4 0 90 0 C90 6.93 90 13.86 90 21 C67.89 21 45.78 21 23 21 C23 30.9 23 40.8 23 51 C42.47 51 61.94 51 82 51 C82 57.6 82 64.2 82 71 C62.53 71 43.06 71 23 71 C23 82.55 23 94.1 23 106 C45.11 106 67.22 106 90 106 C90 112.93 90 119.86 90 127 C60.3 127 30.6 127 0 127 C0 85.09 0 43.18 0 0 Z " fill="#2187C8" transform="translate(482,303)"/>
<path d="M0 0 C29.7 0 59.4 0 90 0 C90 6.93 90 13.86 90 21 C67.89 21 45.78 21 23 21 C23 30.9 23 40.8 23 51 C42.47 51 61.94 51 82 51 C82 57.6 82 64.2 82 71 C62.53 71 43.06 71 23 71 C23 82.55 23 94.1 23 106 C45.11 106 67.22 106 90 106 C90 112.93 90 119.86 90 127 C60.3 127 30.6 127 0 127 C0 85.09 0 43.18 0 0 Z " fill="#2187C8" transform="translate(146,303)"/>
<path d="M0 0 C20.77627391 -2.97664713 20.77627391 -2.97664713 27.12011719 1.49414062 C30.8686266 5.78373923 33.13024995 10.92510514 35.51464844 16.0546875 C38.27255111 21.52334921 41.82265494 26.4973263 45.25 31.5625 C46.55334832 33.51783601 47.85075393 35.47715363 49.140625 37.44140625 C49.69266602 38.27357666 50.24470703 39.10574707 50.81347656 39.96313477 C52 42 52 42 52 44 C52.66 44 53.32 44 54 44 C54.32871094 43.04480469 54.32871094 43.04480469 54.6640625 42.0703125 C56.93723919 36.84599415 60.00352429 32.07180837 63.0168457 27.24511719 C65.81896872 22.73797287 68.38728887 18.29710172 70.58203125 13.4609375 C75.55507803 3.1617898 75.55507803 3.1617898 80 0 C88.13716612 -2.22530953 96.75268533 -1.18160483 105 0 C100.98698998 7.72470843 96.49898802 15.04251704 91.81860352 22.3762207 C87.47924379 29.19311802 83.29752764 36.09491857 79.1784668 43.046875 C75.97322344 48.44201952 72.63499791 53.68194935 69.01171875 58.80859375 C67.68215468 61.68846032 68.16726819 62.96846631 69 66 C70.1611937 68.36604094 70.1611937 68.36604094 71.66796875 70.7109375 C72.22460205 71.61465088 72.78123535 72.51836426 73.35473633 73.44946289 C74.26195435 74.89760376 74.26195435 74.89760376 75.1875 76.375 C76.46641773 78.44384236 77.74505549 80.51285781 79.0234375 82.58203125 C79.68182617 83.64244629 80.34021484 84.70286133 81.01855469 85.79541016 C83.5504593 89.89025736 86.04356354 94.00794109 88.53588867 98.12695312 C93.73713261 106.72112066 99.01130565 115.24995297 104.5234375 123.6484375 C106 126 106 126 106 127 C84.01044581 129.66255286 84.01044581 129.66255286 77.99658203 125.66992188 C74.69977065 121.87810348 72.9952109 117.2612241 71.16064453 112.63671875 C69.00152736 107.73169868 66.00677687 103.31733293 63.125 98.8125 C62.04284204 97.06989689 60.96203972 95.32645094 59.8828125 93.58203125 C58.18108843 90.8504918 56.44270374 88.16184263 54.6171875 85.51171875 C53 83 53 83 53 81 C52.34 81 51.68 81 51 81 C50.66935547 82.22009766 50.66935547 82.22009766 50.33203125 83.46484375 C48.32304526 88.79661009 45.19715514 93.29136335 42.0534668 98.02075195 C39.08096371 102.54255446 36.46084764 106.99438442 34.1953125 111.9140625 C28.61307012 123.42839853 28.61307012 123.42839853 24 127 C15.89277038 129.44870354 7.23997636 128.31473615 -1 127 C3.45100583 118.99894722 8.10068377 111.14832164 12.9375 103.375 C13.47157471 102.51302002 14.00564941 101.65104004 14.5559082 100.76293945 C17.11462553 96.63477739 19.67724669 92.50935996 22.26513672 88.39941406 C24.25719031 85.23496314 26.23417069 82.06147974 28.20315552 78.88262939 C28.98089896 77.63314391 29.76396685 76.38695607 30.55245972 75.14422607 C31.66077243 73.39601029 32.75006443 71.6372145 33.8359375 69.875 C34.47063965 68.86179687 35.1053418 67.84859375 35.75927734 66.8046875 C37.19745928 63.55363789 37.16602107 62.31020426 36 59 C35.05189881 57.03940025 35.05189881 57.03940025 33.8046875 55.19921875 C33.11306519 54.12256958 33.11306519 54.12256958 32.4074707 53.02416992 C31.90175537 52.25306885 31.39604004 51.48196777 30.875 50.6875 C29.78169837 48.99013292 28.68929385 47.29218775 27.59765625 45.59375 C27.01516113 44.69140625 26.43266602 43.7890625 25.83251953 42.859375 C22.61081568 37.83238385 19.46652921 32.75711529 16.3125 27.6875 C11.44343386 19.86988536 6.51778942 12.09875305 1.44140625 4.4140625 C0 2 0 2 0 0 Z " fill="#2288C8" transform="translate(584,303)"/>
</svg>
